<svg xmlns="http://www.w3.org/2000/svg" xmlns:xlink="http://www.w3.org/1999/xlink" width="200" height="200" viewBox="0 0 200 200">
  <defs>
    <clipPath id="clip-Web_1920_1">
      <rect width="200" height="200"/>
    </clipPath>
  </defs>
  <g id="Web_1920_1" data-name="Web 1920 – 1" clip-path="url(#clip-Web_1920_1)">
    <rect width="200" height="200" fill="#fff"/>
    <g id="noun_beard_352791" transform="translate(18.693 9.317)">
      <path id="Path_1" data-name="Path 1" d="M172.1,16.907s-14.6,11.335-31.286,0c-16.73-11.335-31.284-16.642-49.6-5.9C72.892.265,58.336,5.571,41.651,16.907s-31.239,0-31.239,0S7.735,28.784,27.1,43.338c0,0-6.438,6.44-4.306,21.537,2.086,14.328-2.175,20.358-2.63,20.948l7.48-3.038s-1.134,5.486-5.759,13.376c0,0,4.353-.726,5.486-2.086,0,0-1.5,11.743.591,15.506,0,0,1.134-3.763,2.809-5.486a48.263,48.263,0,0,0,4.716,19.859s.952-5.486,3.99-6.8c0,0-2.856,10.2,5.26,26.434,0,0,.589-3.4,1.9-4.9,0,0-1.315,6.165,7.345,16.911-.271-.455-1-2.357.952-5.757,0,0,1.447,10.562,17.366,21.853-.181-.589-2.041-5.759-1.678-8.251a41.981,41.981,0,0,0,6.62,8.3c4.534,4.534,5.3,12.832,5.3,12.832s4.9-4.9,5.26-9.431a14.44,14.44,0,0,1-2.039,12.832s7.525-.181,12.83-15.28c0,0,2.086,2.086,0,5.668,0,0,8.479-4.534,13.013-18.725,0,0,1.5,4.035.09,6.483,5.513-2.813,9.839-10.925,11.6-18.181,0,0,1.134,1.315,0,5.668,0,0,9.973-6.8,11.288-18.907,0,0,.726,5.3.047,7.117.455-1.044,6.85-7.119,8.208-21.926a7.878,7.878,0,0,1,.269,5.048s12.473-16.359,6.212-32.9c0,0,1.725,2.041,5.849,1.678a12.939,12.939,0,0,1-3.763-9.839,8.745,8.745,0,0,0,3.763,3.808,18.163,18.163,0,0,1,0-10.02c1.134-3.4,6.079-21.492,1.274-35.186C174.592,28.331,172.1,16.907,172.1,16.907ZM117.191,46.559c0,3.672,0,6.889-10.02,6.889H74.935c-10.249,0-10.2-3.219-10.2-6.889V44.472c14.691-2.538,18.228-5.258,26.526-11.2,8.116,5.941,11.561,8.66,25.934,11.2C117.191,44.472,117.191,46.06,117.191,46.559Z" transform="translate(-10.286 -5.164)" fill="#333"/>
    </g>
  </g>
</svg>
