<svg xmlns="http://www.w3.org/2000/svg" xmlns:xlink="http://www.w3.org/1999/xlink" width="200" height="200" viewBox="0 0 200 200">
  <defs>
    <clipPath id="clip-Web_1920_1">
      <rect width="200" height="200"/>
    </clipPath>
  </defs>
  <g id="Web_1920_1" data-name="Web 1920 – 1" clip-path="url(#clip-Web_1920_1)">
    <rect width="200" height="200" fill="#fff"/>
    <g id="Group_1" data-name="Group 1" transform="translate(0 -4)">
      <g id="noun_beard_352791" transform="translate(43.787 68.872)">
        <path id="Path_1" data-name="Path 1" d="M122.039,13.274a18.673,18.673,0,0,1-21.607,0C88.878,5.445,78.826,1.78,66.175,9.2c-12.651-7.422-22.7-3.757-34.227,4.072a18.616,18.616,0,0,1-21.575,0S8.524,21.477,21.9,31.529c0,0-4.446,4.448-2.974,14.874,1.44,9.9-1.5,14.06-1.816,14.467l5.166-2.1a34.04,34.04,0,0,1-3.978,9.238s3.006-.5,3.789-1.44c0,0-1.033,8.11.408,10.709a11.52,11.52,0,0,1,1.94-3.789,33.332,33.332,0,0,0,3.257,13.715s.658-3.789,2.755-4.7c0,0-1.973,7.046,3.633,18.256a8.74,8.74,0,0,1,1.315-3.382s-.908,4.258,5.073,11.679c-.187-.314-.69-1.628.658-3.976,0,0,1,7.295,11.993,15.092-.125-.407-1.409-3.978-1.159-5.7a28.994,28.994,0,0,0,4.572,5.731c3.131,3.131,3.664,8.862,3.664,8.862s3.382-3.382,3.633-6.513a9.973,9.973,0,0,1-1.408,8.862s5.2-.125,8.861-10.553c0,0,1.44,1.44,0,3.914,0,0,5.856-3.131,8.987-12.932,0,0,1.033,2.786.062,4.477,3.807-1.943,6.8-7.545,8.014-12.557,0,0,.783.908,0,3.914,0,0,6.888-4.7,7.8-13.058,0,0,.5,3.664.032,4.915.314-.721,4.731-4.917,5.669-15.143a5.441,5.441,0,0,1,.186,3.486s8.614-11.3,4.29-22.725c0,0,1.191,1.409,4.04,1.159a8.936,8.936,0,0,1-2.6-6.8,6.039,6.039,0,0,0,2.6,2.63,12.544,12.544,0,0,1,0-6.92c.783-2.349,4.2-14.843.88-24.3C123.762,21.164,122.039,13.274,122.039,13.274ZM84.119,33.753c0,2.536,0,4.758-6.92,4.758H54.935c-7.078,0-7.046-2.223-7.046-4.758V32.312c10.146-1.753,12.589-3.631,18.319-7.734,5.605,4.1,7.985,5.981,17.911,7.734C84.119,32.312,84.119,33.408,84.119,33.753Z" transform="translate(-10.286 -5.164)" fill="#333"/>
      </g>
      <text id="Beard_People" data-name="Beard People" transform="translate(14 46)" fill="#333" font-size="36" font-family="KGDefyingGravity, KG Defying Gravity"><tspan x="0" y="0">Beard People</tspan></text>
    </g>
  </g>
</svg>
