<svg xmlns="http://www.w3.org/2000/svg" xmlns:xlink="http://www.w3.org/1999/xlink" width="200" height="200" viewBox="0 0 200 200">
  <defs>
    <style>
      .cls-1 {
        clip-path: url(#clip-Web_1920_1);
      }

      .cls-2 {
        fill: #333;
      }

      .cls-3 {
        fill: #fff;
      }
    </style>
    <clipPath id="clip-Web_1920_1">
      <rect width="200" height="200"/>
    </clipPath>
  </defs>
  <g id="Web_1920_1" data-name="Web 1920 – 1" class="cls-1">
    <rect class="cls-3" width="200" height="200"/>
    <g id="noun_beard_352791" transform="translate(43.787 64.872)">
      <path id="Path_1" data-name="Path 1" class="cls-2" d="M122.039,13.274a18.673,18.673,0,0,1-21.607,0C88.878,5.445,78.826,1.78,66.175,9.2c-12.651-7.422-22.7-3.757-34.227,4.072a18.616,18.616,0,0,1-21.575,0S8.524,21.477,21.9,31.529c0,0-4.446,4.448-2.974,14.874,1.44,9.9-1.5,14.06-1.816,14.467l5.166-2.1a34.04,34.04,0,0,1-3.978,9.238s3.006-.5,3.789-1.44c0,0-1.033,8.11.408,10.709a11.52,11.52,0,0,1,1.94-3.789,33.332,33.332,0,0,0,3.257,13.715s.658-3.789,2.755-4.7c0,0-1.973,7.046,3.633,18.256a8.74,8.74,0,0,1,1.315-3.382s-.908,4.258,5.073,11.679c-.187-.314-.69-1.628.658-3.976,0,0,1,7.295,11.993,15.092-.125-.407-1.409-3.978-1.159-5.7a28.994,28.994,0,0,0,4.572,5.731c3.131,3.131,3.664,8.862,3.664,8.862s3.382-3.382,3.633-6.513a9.973,9.973,0,0,1-1.408,8.862s5.2-.125,8.861-10.553c0,0,1.44,1.44,0,3.914,0,0,5.856-3.131,8.987-12.932,0,0,1.033,2.786.062,4.477,3.807-1.943,6.8-7.545,8.014-12.557,0,0,.783.908,0,3.914,0,0,6.888-4.7,7.8-13.058,0,0,.5,3.664.032,4.915.314-.721,4.731-4.917,5.669-15.143a5.441,5.441,0,0,1,.186,3.486s8.614-11.3,4.29-22.725c0,0,1.191,1.409,4.04,1.159a8.936,8.936,0,0,1-2.6-6.8,6.039,6.039,0,0,0,2.6,2.63,12.544,12.544,0,0,1,0-6.92c.783-2.349,4.2-14.843.88-24.3C123.762,21.164,122.039,13.274,122.039,13.274ZM84.119,33.753c0,2.536,0,4.758-6.92,4.758H54.935c-7.078,0-7.046-2.223-7.046-4.758V32.312c10.146-1.753,12.589-3.631,18.319-7.734,5.605,4.1,7.985,5.981,17.911,7.734C84.119,32.312,84.119,33.408,84.119,33.753Z" transform="translate(-10.286 -5.164)"/>
    </g>
    <path id="Path_2" data-name="Path 2" class="cls-2" d="M-.211-25.031H15.223V1.828H-.211ZM4.43-2.777a9.609,9.609,0,0,0,3.006-.176,6.933,6.933,0,0,0,2.338-.984,4.722,4.722,0,0,0,1.512-1.617,4.2,4.2,0,0,0,.527-2.074,5.582,5.582,0,0,0-.686-2.795,4.2,4.2,0,0,0-2.092-1.811,3.57,3.57,0,0,0,.721-.457,3.69,3.69,0,0,0,.721-.756A4.177,4.177,0,0,0,11-14.467a3.366,3.366,0,0,0,.176-1.318A3.677,3.677,0,0,0,10.441-18a4.01,4.01,0,0,0-1.652-1.2,6.652,6.652,0,0,0-2.145-.439q-1.16-.053-2.215-.018Zm5.1-4.852a2.091,2.091,0,0,1-.281,1.055,2.72,2.72,0,0,1-.721.826,3.61,3.61,0,0,1-.984.527,2.655,2.655,0,0,1-1.072.158v-5.625A2.947,2.947,0,0,1,8.842-9.7,3.368,3.368,0,0,1,9.527-7.629ZM6.469-17.473a4.426,4.426,0,0,1,.967.035,2.222,2.222,0,0,1,.826.281,1.616,1.616,0,0,1,.563.563,1.683,1.683,0,0,1,.211.879,2.266,2.266,0,0,1-.756,1.547,2.756,2.756,0,0,1-1.811.773V-17.4q.105-.035-.035-.035T6.469-17.473ZM14.8-25.031H30.234V1.828H14.8Zm4.465,5.273V-2.812h6.609v-2.25l-4.324.035V-9.422h3.621v-2.25H21.551v-5.906h4.324v-2.18Zm10.547-5.273H45.246V1.828H29.813Zm8.754,5.238h-2.18L32.625-2.812H34.8L35.93-7.98h3.094l1.125,5.168h2.18Zm-1.09,4.852,1.055,4.781H36.387Zm7.348-10.09H60.258V1.828H44.824ZM51.117-2.812V-9.281l3.34,6.469h2.391L53.227-9.738a4.5,4.5,0,0,0,1.635-.773,4.316,4.316,0,0,0,1.107-1.248,5.58,5.58,0,0,0,.615-1.529,6.932,6.932,0,0,0,.193-1.617,7.174,7.174,0,0,0-.123-1.3,4.164,4.164,0,0,0-.439-1.248,4.254,4.254,0,0,0-.844-1.072,4.147,4.147,0,0,0-1.336-.809,7.905,7.905,0,0,0-2.232-.387,25.735,25.735,0,0,0-2.689,0v16.91Zm3.445-12.094a3.242,3.242,0,0,1-.756,2.426,3.057,3.057,0,0,1-2.689.738v-5.8a3.231,3.231,0,0,1,2.619.633A3,3,0,0,1,54.563-14.906Zm5.273-10.125H75.27V1.828H59.836Zm4.5,22.184A8.823,8.823,0,0,0,68.2-3.322a5.185,5.185,0,0,0,2.285-1.74A6.3,6.3,0,0,0,71.561-7.7a16.36,16.36,0,0,0,.229-3.164q-.035-1.02-.07-2.092a11.225,11.225,0,0,0-.264-2.092,8.428,8.428,0,0,0-.686-1.934A4.493,4.493,0,0,0,69.5-18.527a5.68,5.68,0,0,0-2.074-.967,10.019,10.019,0,0,0-3.094-.229Zm2.039-14.625q.105-.035-.035-.053t.035-.018a2.428,2.428,0,0,1,1.371.3,2.776,2.776,0,0,1,.932.914,4.587,4.587,0,0,1,.563,1.336,11.414,11.414,0,0,1,.281,1.512q.088.756.105,1.477t.018,1.248q-.035.949-.123,1.951A6.122,6.122,0,0,1,69.1-7a3.391,3.391,0,0,1-.967,1.336,2.667,2.667,0,0,1-1.758.527Zm16.172-7.559H97.98V1.828H82.547Zm9.7,9.984a3.311,3.311,0,0,1-.721,2.109,2.973,2.973,0,0,1-2.408.949v-5.8a4.147,4.147,0,0,1,1.441.158,2.274,2.274,0,0,1,.967.58,2.408,2.408,0,0,1,.545.914A3.424,3.424,0,0,1,92.25-15.047ZM89.121-2.953V-9.492a6.442,6.442,0,0,0,2.531-.773A5.91,5.91,0,0,0,93.3-11.654a4.907,4.907,0,0,0,.9-1.687,6.045,6.045,0,0,0,.264-1.705,5.717,5.717,0,0,0-.387-2.109,3.836,3.836,0,0,0-1.248-1.652,5.545,5.545,0,0,0-2.285-.967,11.4,11.4,0,0,0-3.463-.088v16.91Zm8.438-22.078h15.434V1.828H97.559Zm4.465,5.273V-2.812h6.609v-2.25l-4.324.035V-9.422h3.621v-2.25h-3.621v-5.906h4.324v-2.18Zm10.547-5.273H128V1.828H112.57Zm12.656,14.1a21.59,21.59,0,0,0-.105-2.6,13.469,13.469,0,0,0-.6-2.953,6.6,6.6,0,0,0-1.336-2.391,2.9,2.9,0,0,0-2.355-.949,3.7,3.7,0,0,0-2.268.861,6.061,6.061,0,0,0-1.529,2.039,10.55,10.55,0,0,0-.861,2.777,20.712,20.712,0,0,0-.3,3.041,12.573,12.573,0,0,0,1.09,6.152,3.665,3.665,0,0,0,3.375,2.109,3.666,3.666,0,0,0,2.127-.615,4.842,4.842,0,0,0,1.494-1.705,9.05,9.05,0,0,0,.9-2.566A20.327,20.327,0,0,0,125.227-10.934ZM122.941-11a12.513,12.513,0,0,1-.721,4.324q-.65,1.582-1.846,1.547-1.09,0-1.705-1.582a11.967,11.967,0,0,1-.58-4.359q.035-.879.176-1.986a11.6,11.6,0,0,1,.457-2.092,5.7,5.7,0,0,1,.826-1.67,1.573,1.573,0,0,1,1.318-.686,1.121,1.121,0,0,1,.879.475,4.166,4.166,0,0,1,.668,1.336,10.743,10.743,0,0,1,.422,2.074A18.73,18.73,0,0,1,122.941-11Zm4.641-14.027h15.434V1.828H127.582Zm9.7,9.984a3.311,3.311,0,0,1-.721,2.109,2.973,2.973,0,0,1-2.408.949v-5.8a4.147,4.147,0,0,1,1.441.158,2.274,2.274,0,0,1,.967.58,2.408,2.408,0,0,1,.545.914A3.424,3.424,0,0,1,137.285-15.047ZM134.156-2.953V-9.492a6.442,6.442,0,0,0,2.531-.773,5.91,5.91,0,0,0,1.652-1.389,4.907,4.907,0,0,0,.9-1.687,6.045,6.045,0,0,0,.264-1.705,5.717,5.717,0,0,0-.387-2.109,3.836,3.836,0,0,0-1.248-1.652,5.545,5.545,0,0,0-2.285-.967,11.4,11.4,0,0,0-3.463-.088v16.91Zm8.438-22.078h15.434V1.828H142.594Zm4.746,5.273v16.91h6.609V-5.062h-4.324v-14.7Zm10.266-5.273h15.434V1.828H157.605Zm4.465,5.273V-2.812h6.609v-2.25l-4.324.035V-9.422h3.621v-2.25h-3.621v-5.906h4.324v-2.18Z" transform="translate(14 42)"/>
  </g>
</svg>
