<svg xmlns="http://www.w3.org/2000/svg" xmlns:xlink="http://www.w3.org/1999/xlink" width="180" height="180" viewBox="0 0 180 180">
  <defs>
    <clipPath id="clip-Web_1920_1">
      <rect width="180" height="180"/>
    </clipPath>
  </defs>
  <g id="Web_1920_1" data-name="Web 1920 – 1" clip-path="url(#clip-Web_1920_1)">
    <rect width="180" height="180" fill="#fff"/>
    <g id="noun_beard_352791" transform="translate(44.787 76.872)">
      <path id="Path_1" data-name="Path 1" d="M99.7,11.653a14.941,14.941,0,0,1-17.289,0C73.17,5.389,65.127,2.457,55,8.4,44.883,2.457,36.839,5.389,27.619,11.653a14.9,14.9,0,0,1-17.263,0s-1.479,6.564,9.22,14.606c0,0-3.558,3.559-2.379,11.9,1.153,7.918-1.2,11.25-1.453,11.576l4.133-1.679a27.237,27.237,0,0,1-3.183,7.392s2.405-.4,3.032-1.153c0,0-.827,6.489.327,8.569A9.217,9.217,0,0,1,21.6,59.834a26.67,26.67,0,0,0,2.606,10.974s.526-3.032,2.2-3.758c0,0-1.578,5.637,2.907,14.607a6.993,6.993,0,0,1,1.052-2.706s-.727,3.407,4.059,9.345c-.15-.251-.552-1.3.526-3.181,0,0,.8,5.837,9.6,12.076-.1-.326-1.128-3.183-.927-4.559a23.2,23.2,0,0,0,3.658,4.585c2.506,2.506,2.931,7.091,2.931,7.091s2.706-2.706,2.907-5.212A7.98,7.98,0,0,1,52,106.187s4.158-.1,7.09-8.444c0,0,1.153,1.153,0,3.132,0,0,4.686-2.506,7.191-10.348,0,0,.827,2.23.05,3.583,3.046-1.555,5.437-6.037,6.413-10.047,0,0,.626.727,0,3.132,0,0,5.511-3.758,6.238-10.448,0,0,.4,2.931.026,3.933.251-.577,3.785-3.934,4.536-12.117a4.353,4.353,0,0,1,.149,2.789s6.893-9.04,3.433-18.183a3.788,3.788,0,0,0,3.232.927,7.15,7.15,0,0,1-2.08-5.437,4.832,4.832,0,0,0,2.08,2.1,10.037,10.037,0,0,1,0-5.537c.626-1.879,3.36-11.877.7-19.444C101.083,17.967,99.7,11.653,99.7,11.653ZM69.362,28.039c0,2.029,0,3.807-5.537,3.807H46.011c-5.663,0-5.637-1.779-5.637-3.807V26.886c8.118-1.4,10.073-2.905,14.658-6.188,4.485,3.283,6.389,4.786,14.331,6.188C69.362,26.886,69.362,27.763,69.362,28.039Z" transform="translate(-10.286 -5.164)" fill="#333"/>
    </g>
    <path id="Path_3" data-name="Path 3" d="M-72.187-20.859h14.448V4.285H-72.187ZM-67.843-.026a9,9,0,0,0,2.814-.165,6.49,6.49,0,0,0,2.189-.922,4.421,4.421,0,0,0,1.415-1.514,3.932,3.932,0,0,0,.494-1.942,5.225,5.225,0,0,0-.642-2.616A3.931,3.931,0,0,0-63.532-8.88a3.342,3.342,0,0,0,.675-.428,3.454,3.454,0,0,0,.675-.708,3.911,3.911,0,0,0,.494-.954,3.151,3.151,0,0,0,.165-1.234,3.442,3.442,0,0,0-.691-2.073A3.754,3.754,0,0,0-63.762-15.4a6.227,6.227,0,0,0-2.008-.411q-1.086-.049-2.073-.016Zm4.772-4.542a1.958,1.958,0,0,1-.263.987,2.547,2.547,0,0,1-.675.773,3.379,3.379,0,0,1-.922.494,2.485,2.485,0,0,1-1,.148V-7.432a2.759,2.759,0,0,1,2.222.922A3.153,3.153,0,0,1-63.071-4.568Zm-2.863-9.215a4.143,4.143,0,0,1,.905.033,2.08,2.08,0,0,1,.773.263,1.513,1.513,0,0,1,.527.527,1.576,1.576,0,0,1,.2.823,2.122,2.122,0,0,1-.708,1.448,2.58,2.58,0,0,1-1.695.724v-3.752q.1-.033-.033-.033T-65.934-13.783Zm7.8-7.076h14.448V4.285H-58.134Zm4.18,4.937V-.059h6.187V-2.166l-4.048.033V-6.247h3.39V-8.353h-3.39v-5.529h4.048v-2.041Zm9.873-4.937h14.448V4.285H-44.081Zm8.195,4.9h-2.041l-3.522,15.9h2.041L-38.355-4.9h2.9l1.053,4.838h2.041Zm-1.02,4.542.987,4.476h-2.008Zm6.878-9.446H-15.58V4.285H-30.028Zm5.891,20.8V-6.115L-21.01-.059h2.238l-3.39-6.484a4.21,4.21,0,0,0,1.53-.724A4.04,4.04,0,0,0-19.6-8.435a5.224,5.224,0,0,0,.576-1.432,6.489,6.489,0,0,0,.181-1.514,6.716,6.716,0,0,0-.115-1.218,3.9,3.9,0,0,0-.411-1.168,3.982,3.982,0,0,0-.79-1,3.882,3.882,0,0,0-1.251-.757,7.4,7.4,0,0,0-2.09-.362,24.092,24.092,0,0,0-2.518,0V-.059Zm3.225-11.322a3.035,3.035,0,0,1-.708,2.271,2.862,2.862,0,0,1-2.518.691v-5.43a3.024,3.024,0,0,1,2.452.592A2.813,2.813,0,0,1-20.912-11.381Zm4.937-9.478H-1.527V4.285H-15.975ZM-11.762-.092a8.26,8.26,0,0,0,3.62-.444A4.854,4.854,0,0,0-6-2.166,5.9,5.9,0,0,0-5-4.634,15.315,15.315,0,0,0-4.785-7.6q-.033-.954-.066-1.958A10.508,10.508,0,0,0-5.1-11.513a7.89,7.89,0,0,0-.642-1.81,4.206,4.206,0,0,0-1.185-1.448,5.318,5.318,0,0,0-1.942-.905,9.379,9.379,0,0,0-2.9-.214Zm1.909-13.691q.1-.033-.033-.049t.033-.016a2.273,2.273,0,0,1,1.284.28,2.6,2.6,0,0,1,.872.856,4.3,4.3,0,0,1,.527,1.251,10.685,10.685,0,0,1,.263,1.415q.082.708.1,1.382T-6.792-7.5q-.033.889-.115,1.827A5.731,5.731,0,0,1-7.3-3.976a3.175,3.175,0,0,1-.905,1.251,2.5,2.5,0,0,1-1.646.494ZM5.286-20.859H19.734V4.285H5.286Zm9.084,9.347a3.1,3.1,0,0,1-.675,1.975,2.783,2.783,0,0,1-2.254.889v-5.43a3.883,3.883,0,0,1,1.349.148,2.129,2.129,0,0,1,.905.543,2.254,2.254,0,0,1,.51.856A3.205,3.205,0,0,1,14.37-11.513ZM11.44-.191V-6.313a6.03,6.03,0,0,0,2.37-.724,5.533,5.533,0,0,0,1.547-1.3,4.594,4.594,0,0,0,.839-1.58,5.659,5.659,0,0,0,.247-1.6,5.352,5.352,0,0,0-.362-1.975,3.591,3.591,0,0,0-1.168-1.547,5.191,5.191,0,0,0-2.139-.905,10.676,10.676,0,0,0-3.242-.082V-.191Zm7.9-20.668H33.787V4.285H19.339Zm4.18,4.937V-.059h6.187V-2.166l-4.048.033V-6.247h3.39V-8.353h-3.39v-5.529h4.048v-2.041Zm9.873-4.937H47.84V4.285H33.392ZM45.24-7.662a20.212,20.212,0,0,0-.1-2.435,12.609,12.609,0,0,0-.559-2.765A6.177,6.177,0,0,0,43.332-15.1a2.716,2.716,0,0,0-2.205-.889A3.463,3.463,0,0,0,39-15.182a5.674,5.674,0,0,0-1.432,1.909,9.877,9.877,0,0,0-.806,2.6,19.389,19.389,0,0,0-.28,2.847,11.77,11.77,0,0,0,1.02,5.759A3.431,3.431,0,0,0,40.666-.092a3.432,3.432,0,0,0,1.991-.576,4.533,4.533,0,0,0,1.4-1.6,8.472,8.472,0,0,0,.839-2.4A19.03,19.03,0,0,0,45.24-7.662ZM43.1-7.728a11.714,11.714,0,0,1-.675,4.048Q41.818-2.2,40.7-2.232q-1.02,0-1.6-1.481a11.2,11.2,0,0,1-.543-4.081q.033-.823.165-1.859a10.857,10.857,0,0,1,.428-1.958,5.336,5.336,0,0,1,.773-1.563,1.472,1.472,0,0,1,1.234-.642,1.049,1.049,0,0,1,.823.444,3.9,3.9,0,0,1,.625,1.251A10.057,10.057,0,0,1,43-10.18,17.534,17.534,0,0,1,43.1-7.728Zm4.344-13.132H61.894V4.285H47.446Zm9.084,9.347a3.1,3.1,0,0,1-.675,1.975,2.783,2.783,0,0,1-2.254.889v-5.43a3.883,3.883,0,0,1,1.349.148,2.129,2.129,0,0,1,.905.543,2.254,2.254,0,0,1,.51.856A3.205,3.205,0,0,1,56.529-11.513ZM53.6-.191V-6.313a6.03,6.03,0,0,0,2.37-.724,5.533,5.533,0,0,0,1.547-1.3,4.594,4.594,0,0,0,.839-1.58,5.659,5.659,0,0,0,.247-1.6,5.352,5.352,0,0,0-.362-1.975,3.591,3.591,0,0,0-1.168-1.547,5.191,5.191,0,0,0-2.139-.905,10.676,10.676,0,0,0-3.242-.082V-.191Zm7.9-20.668H75.947V4.285H61.5Zm4.443,4.937V-.092h6.187V-2.166H68.081V-15.923Zm9.61-4.937H90V4.285H75.552Zm4.18,4.937V-.059h6.187V-2.166l-4.048.033V-6.247h3.39V-8.353h-3.39v-5.529h4.048v-2.041ZM-47.57,11.771h19.264V45.3H-47.57Zm5.792,27.777a12,12,0,0,0,3.752-.219A8.654,8.654,0,0,0-35.107,38.1a5.894,5.894,0,0,0,1.887-2.019,5.242,5.242,0,0,0,.658-2.589A6.967,6.967,0,0,0-33.418,30a5.242,5.242,0,0,0-2.611-2.26,4.456,4.456,0,0,0,.9-.57,4.606,4.606,0,0,0,.9-.943,5.214,5.214,0,0,0,.658-1.273,4.2,4.2,0,0,0,.219-1.646,4.59,4.59,0,0,0-.922-2.765,5.005,5.005,0,0,0-2.062-1.492,8.3,8.3,0,0,0-2.677-.549q-1.448-.066-2.765-.022Zm6.363-6.056a2.61,2.61,0,0,1-.351,1.316,3.4,3.4,0,0,1-.9,1.031,4.506,4.506,0,0,1-1.229.658,3.314,3.314,0,0,1-1.338.2V29.675A3.679,3.679,0,0,1-36.27,30.9,4.2,4.2,0,0,1-35.414,33.493Zm-3.818-12.287a5.525,5.525,0,0,1,1.207.044,2.774,2.774,0,0,1,1.031.351,2.017,2.017,0,0,1,.7.7,2.1,2.1,0,0,1,.263,1.1,2.829,2.829,0,0,1-.943,1.931,3.44,3.44,0,0,1-2.26.965v-5q.132-.044-.044-.044T-39.232,21.206Zm10.4-9.435H-9.568V45.3H-28.832Zm10.927,6.538h-2.721l-4.7,21.195H-22.6l1.4-6.451h3.862l1.4,6.451h2.721Zm-1.36,6.056,1.316,5.968h-2.677Zm9.171-12.594H9.17V45.3H-10.095ZM-2.24,39.5V31.43L1.929,39.5H4.913L.393,30.86a5.613,5.613,0,0,0,2.041-.965,5.387,5.387,0,0,0,1.382-1.558,6.965,6.965,0,0,0,.768-1.909,8.652,8.652,0,0,0,.241-2.019,8.955,8.955,0,0,0-.154-1.624,5.2,5.2,0,0,0-.549-1.558A5.31,5.31,0,0,0,3.07,19.889,5.176,5.176,0,0,0,1.4,18.88,9.867,9.867,0,0,0-1.384,18.4a32.123,32.123,0,0,0-3.357,0V39.5Zm4.3-15.1a4.046,4.046,0,0,1-.943,3.028,3.816,3.816,0,0,1-3.357.922V21.118a4.032,4.032,0,0,1,3.269.79A3.75,3.75,0,0,1,2.061,24.409ZM8.643,11.771H27.907V45.3H8.643Zm5.792,27.777a11.994,11.994,0,0,0,3.752-.219A8.654,8.654,0,0,0,21.105,38.1a5.894,5.894,0,0,0,1.887-2.019,5.242,5.242,0,0,0,.658-2.589A6.967,6.967,0,0,0,22.795,30a5.242,5.242,0,0,0-2.611-2.26,4.456,4.456,0,0,0,.9-.57,4.606,4.606,0,0,0,.9-.943,5.214,5.214,0,0,0,.658-1.273,4.2,4.2,0,0,0,.219-1.646,4.59,4.59,0,0,0-.922-2.765,5.005,5.005,0,0,0-2.062-1.492,8.3,8.3,0,0,0-2.677-.549q-1.448-.066-2.765-.022ZM20.8,33.493a2.61,2.61,0,0,1-.351,1.316,3.4,3.4,0,0,1-.9,1.031,4.506,4.506,0,0,1-1.229.658,3.314,3.314,0,0,1-1.338.2V29.675A3.679,3.679,0,0,1,19.943,30.9,4.2,4.2,0,0,1,20.8,33.493ZM16.981,21.206a5.525,5.525,0,0,1,1.207.044,2.774,2.774,0,0,1,1.031.351,2.017,2.017,0,0,1,.7.7,2.1,2.1,0,0,1,.263,1.1,2.829,2.829,0,0,1-.943,1.931,3.44,3.44,0,0,1-2.26.965v-5q.132-.044-.044-.044T16.981,21.206Zm10.4-9.435H46.645V45.3H27.381Zm5.573,6.582V39.5H41.2V36.7l-5.4.044V31.255h4.52V28.446h-4.52V21.074h5.4V18.353Zm13.165-6.582H65.382V45.3H46.118ZM53.973,39.5V31.43L58.142,39.5h2.984l-4.52-8.645a5.613,5.613,0,0,0,2.041-.965,5.387,5.387,0,0,0,1.382-1.558,6.966,6.966,0,0,0,.768-1.909,8.652,8.652,0,0,0,.241-2.019,8.955,8.955,0,0,0-.154-1.624,5.2,5.2,0,0,0-.549-1.558,5.31,5.31,0,0,0-1.053-1.338,5.176,5.176,0,0,0-1.668-1.009,9.867,9.867,0,0,0-2.787-.483,32.123,32.123,0,0,0-3.357,0V39.5Zm4.3-15.1a4.046,4.046,0,0,1-.943,3.028,3.816,3.816,0,0,1-3.357.922V21.118a4.032,4.032,0,0,1,3.269.79A3.75,3.75,0,0,1,58.273,24.409Z" transform="translate(81.188 25.734)" fill="#333"/>
  </g>
</svg>
